# Blender v2.72 (sub 0) OBJ File: 'pipe-valve-off.blend'
# www.blender.org
o Cube.003
v -0.312500 0.281250 -0.062500
v 0.093750 0.281250 -0.062500
v 0.093750 0.281250 0.062500
v -0.312500 0.281250 0.062500
v -0.312500 0.343750 -0.062500
v 0.093750 0.343750 -0.062500
v 0.093750 0.343750 0.062500
v -0.312500 0.343750 0.062500
v -0.031250 0.250000 -0.031250
v 0.031250 0.250000 -0.031250
v 0.031250 0.250000 0.031250
v -0.031250 0.250000 0.031250
v -0.031250 0.281250 -0.031250
v 0.031250 0.281250 -0.031250
v 0.031250 0.281250 0.031250
v -0.031250 0.281250 0.031250
v -0.250000 -0.250000 -0.250000
v 0.250000 -0.250000 -0.250000
v 0.250000 -0.250000 0.250000
v -0.250000 -0.250000 0.250000
v -0.250000 0.250000 -0.250000
v 0.250000 0.250000 -0.250000
v 0.250000 0.250000 0.250000
v -0.250000 0.250000 0.250000
v -0.030483 -0.153248 0.468750
v -0.030483 -0.153248 0.500000
v 0.030483 -0.153248 0.468750
v 0.030483 -0.153248 0.500000
v 0.086808 -0.129917 0.468750
v 0.086808 -0.129917 0.500000
v 0.129917 -0.086808 0.468750
v 0.129917 -0.086808 0.500000
v 0.153248 -0.030483 0.468750
v 0.153248 -0.030483 0.500000
v 0.153248 0.030483 0.468750
v 0.153248 0.030483 0.500000
v 0.129917 0.086808 0.468750
v 0.129917 0.086808 0.500000
v 0.086808 0.129917 0.468750
v 0.086808 0.129917 0.500000
v 0.030483 0.153248 0.468750
v 0.030483 0.153247 0.500000
v -0.030483 0.153248 0.468750
v -0.030483 0.153248 0.500000
v -0.086808 0.129917 0.468750
v -0.086808 0.129917 0.500000
v -0.129917 0.086808 0.468750
v -0.129917 0.086808 0.500000
v -0.153248 0.030483 0.468750
v -0.153248 0.030483 0.500000
v -0.153248 -0.030483 0.468750
v -0.153248 -0.030483 0.500000
v -0.129917 -0.086808 0.468750
v -0.129917 -0.086808 0.500000
v -0.086808 -0.129917 0.468750
v -0.086808 -0.129917 0.500000
v -0.024386 -0.122598 0.468750
v 0.024386 -0.122598 0.468750
v 0.069446 -0.103934 0.468750
v 0.103934 -0.069446 0.468750
v 0.122598 -0.024386 0.468750
v 0.122598 0.024386 0.468750
v 0.103934 0.069446 0.468750
v 0.069446 0.103934 0.468750
v 0.024386 0.122598 0.468750
v -0.024386 0.122598 0.468750
v -0.069446 0.103934 0.468750
v -0.103934 0.069446 0.468750
v -0.122598 0.024386 0.468750
v -0.122598 -0.024387 0.468750
v -0.103934 -0.069447 0.468750
v -0.069446 -0.103934 0.468750
v -0.000000 -0.000000 0.468750
v -0.000000 -0.000000 0.500000
v 0.103934 -0.069446 -0.468750
v 0.069447 -0.103933 -0.468750
v 0.024387 -0.122598 -0.468750
v -0.024386 -0.122598 -0.468750
v -0.086808 -0.129917 -0.500000
v -0.086808 -0.129917 -0.468750
v -0.129917 -0.086808 -0.500000
v -0.129917 -0.086808 -0.468750
v -0.153247 -0.030483 -0.500000
v -0.153247 -0.030483 -0.468750
v -0.153247 0.030483 -0.500000
v -0.153247 0.030483 -0.468750
v -0.129917 0.086808 -0.500000
v -0.129917 0.086808 -0.468750
v -0.086808 0.129917 -0.500000
v -0.086808 0.129917 -0.468750
v -0.030483 0.153248 -0.500000
v -0.030483 0.153248 -0.468750
v 0.030483 0.153248 -0.500000
v 0.030483 0.153248 -0.468750
v 0.086808 0.129917 -0.500000
v 0.086808 0.129917 -0.468750
v 0.129917 0.086808 -0.500000
v 0.129917 0.086808 -0.468750
v 0.153248 0.030483 -0.500000
v 0.153248 0.030483 -0.468750
v 0.153248 -0.030483 -0.500000
v 0.153248 -0.030483 -0.468750
v 0.129917 -0.086807 -0.500000
v 0.129917 -0.086808 -0.468750
v 0.086808 -0.129917 -0.500000
v 0.086808 -0.129917 -0.468750
v 0.030483 -0.153247 -0.500000
v 0.030483 -0.153247 -0.468750
v -0.030483 -0.153247 -0.500000
v -0.030483 -0.153247 -0.468750
v 0.122598 -0.024386 -0.468750
v 0.122598 0.024387 -0.468750
v 0.103934 0.069447 -0.468750
v 0.069447 0.103934 -0.468750
v 0.024387 0.122598 -0.468750
v -0.024386 0.122598 -0.468750
v -0.069446 0.103934 -0.468750
v -0.103933 0.069447 -0.468750
v -0.122598 0.024387 -0.468750
v -0.122598 -0.024386 -0.468750
v -0.103933 -0.069446 -0.468750
v -0.069446 -0.103933 -0.468750
v 0.000000 0.000000 -0.468750
v 0.000000 0.000000 -0.500000
vt 0.265625 0.234375
vt 0.468750 0.234375
vt 0.468750 0.265625
vt 0.265625 0.265625
vt 0.265625 0.187500
vt 0.328125 0.187500
vt 0.328125 0.218750
vt 0.265625 0.218750
vt 0.468750 0.312500
vt 0.265625 0.312500
vt 0.265625 0.281250
vt 0.468750 0.281250
vt 0.406250 0.218750
vt 0.343750 0.218750
vt 0.343750 0.187500
vt 0.406250 0.187500
vt 0.468750 0.468750
vt 0.265625 0.468750
vt 0.265625 0.406250
vt 0.468750 0.406250
vt 0.468750 0.390625
vt 0.265625 0.390625
vt 0.265625 0.328125
vt 0.468750 0.328125
vt 0.039062 0.203125
vt 0.007812 0.203125
vt 0.007812 0.187500
vt 0.039062 0.187500
vt 0.085938 0.203125
vt 0.054688 0.203125
vt 0.054688 0.187500
vt 0.085938 0.187500
vt 0.148438 0.187500
vt 0.179688 0.187500
vt 0.179688 0.203125
vt 0.148438 0.203125
vt 0.132812 0.203125
vt 0.101562 0.203125
vt 0.101562 0.187500
vt 0.132812 0.187500
vt 0.515625 0.484375
vt 0.515625 0.734375
vt 0.265625 0.734375
vt 0.265625 0.484375
vt 0.000000 0.468750
vt 0.000000 0.218750
vt 0.250000 0.218750
vt 0.250000 0.468750
vt 0.515625 1.000000
vt 0.265625 1.000000
vt 0.265625 0.750000
vt 0.515625 0.750000
vt 0.250000 0.734375
vt 0.000000 0.734375
vt 0.000000 0.484375
vt 0.250000 0.484375
vt 0.781250 1.000000
vt 0.531250 1.000000
vt 0.531250 0.750000
vt 0.781250 0.750000
vt 0.000847 0.750015
vt 0.250216 0.750015
vt 0.250216 0.999385
vt 0.000847 0.999385
vt 0.867188 0.273438
vt 0.835938 0.273438
vt 0.835938 0.304688
vt 0.867188 0.304688
vt 0.804688 0.273438
vt 0.804688 0.304688
vt 0.773438 0.273438
vt 0.773438 0.304688
vt 0.742188 0.273438
vt 0.742188 0.304688
vt 0.710938 0.273438
vt 0.710938 0.304688
vt 0.679688 0.273438
vt 0.679688 0.304688
vt 0.648438 0.273438
vt 0.648438 0.304688
vt 0.617188 0.273438
vt 0.617188 0.304688
vt 0.585938 0.273438
vt 0.585938 0.304688
vt 0.554688 0.273438
vt 0.554688 0.304688
vt 0.523438 0.273438
vt 0.523438 0.304688
vt 0.492188 0.273438
vt 0.492188 0.304688
vt 0.992188 0.273438
vt 0.960938 0.273438
vt 0.960938 0.304688
vt 0.992188 0.304688
vt 0.929688 0.273438
vt 0.929688 0.304688
vt 0.898438 0.273438
vt 0.898438 0.304688
vt 0.600936 0.328499
vt 0.584692 0.410164
vt 0.568448 0.328499
vt 0.757628 0.328499
vt 0.773872 0.410164
vt 0.790117 0.328499
vt 0.820132 0.340932
vt 0.843105 0.363905
vt 0.855537 0.393920
vt 0.855537 0.426408
vt 0.843105 0.456424
vt 0.820132 0.479396
vt 0.790117 0.491829
vt 0.757628 0.491829
vt 0.727613 0.479396
vt 0.704640 0.456424
vt 0.692207 0.426408
vt 0.692207 0.393920
vt 0.704640 0.363905
vt 0.727613 0.340932
vt 0.538432 0.340932
vt 0.515460 0.363905
vt 0.503027 0.393920
vt 0.503027 0.426408
vt 0.515460 0.456424
vt 0.538432 0.479396
vt 0.568448 0.491829
vt 0.600936 0.491829
vt 0.630951 0.479396
vt 0.653924 0.456424
vt 0.666357 0.426408
vt 0.666357 0.393920
vt 0.653924 0.363905
vt 0.630951 0.340932
vt 0.585938 0.257812
vt 0.585938 0.007812
vt 0.617188 0.007812
vt 0.617188 0.257812
vt 0.929688 0.257812
vt 0.929688 0.007812
vt 0.960938 0.007812
vt 0.960938 0.257812
vt 0.867188 0.257812
vt 0.867188 0.007812
vt 0.898438 0.007812
vt 0.898438 0.257812
vt 0.773438 0.257812
vt 0.773438 0.007812
vt 0.804688 0.007812
vt 0.804688 0.257812
vt 0.835938 0.257812
vt 0.835938 0.007812
vt 0.742188 0.257812
vt 0.742188 0.007812
vt 0.710938 0.257812
vt 0.710938 0.007812
vt 0.679688 0.257812
vt 0.679688 0.007812
vt 0.648438 0.257812
vt 0.648438 0.007812
vt 0.554688 0.257812
vt 0.554688 0.007812
vt 0.523438 0.257812
vt 0.523438 0.007812
vt 0.492188 0.257812
vt 0.492188 0.007812
vt 0.992188 0.007812
vt 0.992188 0.257812
vn 0.000000 0.000000 -1.000000
vn 1.000000 0.000000 0.000000
vn -0.000000 0.000000 1.000000
vn -1.000000 0.000000 -0.000000
vn 0.000000 -1.000000 0.000000
vn 0.000000 1.000000 0.000000
vn 0.382700 -0.923900 -0.000000
vn 0.707100 -0.707100 -0.000000
vn 0.923900 -0.382700 0.000000
vn 0.923900 0.382700 0.000000
vn 0.707100 0.707100 0.000000
vn 0.382700 0.923900 0.000000
vn -0.382700 0.923900 0.000000
vn -0.707100 0.707100 0.000000
vn -0.923900 0.382700 -0.000000
vn -0.923900 -0.382700 -0.000000
vn -0.382700 -0.923900 -0.000000
vn -0.707100 -0.707100 -0.000000
g Cube.003_Cube.003_None
s off
f 5/1/1 6/2/1 2/3/1 1/4/1
f 6/5/2 7/6/2 3/7/2 2/8/2
f 7/9/3 8/10/3 4/11/3 3/12/3
f 8/13/4 5/14/4 1/15/4 4/16/4
f 1/17/5 2/18/5 3/19/5 4/20/5
f 8/21/6 7/22/6 6/23/6 5/24/6
f 13/25/1 14/26/1 10/27/1 9/28/1
f 14/29/2 15/30/2 11/31/2 10/32/2
f 15/33/3 16/34/3 12/35/3 11/36/3
f 16/37/4 13/38/4 9/39/4 12/40/4
f 21/41/1 22/42/1 18/43/1 17/44/1
f 22/45/2 23/46/2 19/47/2 18/48/2
f 23/49/3 24/50/3 20/51/3 19/52/3
f 24/53/4 21/54/4 17/55/4 20/56/4
f 17/57/5 18/58/5 19/59/5 20/60/5
f 24/61/6 23/62/6 22/63/6 21/64/6
f 25/65/5 27/66/5 28/67/5 26/68/5
f 27/66/7 29/69/7 30/70/7 28/67/7
f 29/69/8 31/71/8 32/72/8 30/70/8
f 31/71/9 33/73/9 34/74/9 32/72/9
f 33/73/2 35/75/2 36/76/2 34/74/2
f 35/75/10 37/77/10 38/78/10 36/76/10
f 37/77/11 39/79/11 40/80/11 38/78/11
f 39/79/12 41/81/12 42/82/12 40/80/12
f 41/81/6 43/83/6 44/84/6 42/82/6
f 43/83/13 45/85/13 46/86/13 44/84/13
f 45/85/14 47/87/14 48/88/14 46/86/14
f 47/87/15 49/89/15 50/90/15 48/88/15
f 49/91/4 51/92/4 52/93/4 50/94/4
f 51/92/16 53/95/16 54/96/16 52/93/16
f 55/97/17 25/65/17 26/68/17 56/98/17
f 53/95/18 55/97/18 56/98/18 54/96/18
f 28/99/3 74/100/3 26/101/3
f 25/102/1 73/103/1 27/104/1
f 27/104/1 73/103/1 29/105/1
f 29/105/1 73/103/1 31/106/1
f 31/106/1 73/103/1 33/107/1
f 33/107/1 73/103/1 35/108/1
f 35/108/1 73/103/1 37/109/1
f 37/109/1 73/103/1 39/110/1
f 39/110/1 73/103/1 41/111/1
f 41/111/1 73/103/1 43/112/1
f 43/112/1 73/103/1 45/113/1
f 45/113/1 73/103/1 47/114/1
f 47/114/1 73/103/1 49/115/1
f 49/115/1 73/103/1 51/116/1
f 51/116/1 73/103/1 53/117/1
f 53/117/1 73/103/1 55/118/1
f 55/118/1 73/103/1 25/102/1
f 26/101/3 74/100/3 56/119/3
f 56/119/3 74/100/3 54/120/3
f 54/120/3 74/100/3 52/121/3
f 52/121/3 74/100/3 50/122/3
f 50/122/3 74/100/3 48/123/3
f 48/123/3 74/100/3 46/124/3
f 46/124/3 74/100/3 44/125/3
f 44/125/3 74/100/3 42/126/3
f 42/126/3 74/100/3 40/127/3
f 40/127/3 74/100/3 38/128/3
f 38/128/3 74/100/3 36/129/3
f 36/129/3 74/100/3 34/130/3
f 34/130/3 74/100/3 32/131/3
f 32/131/3 74/100/3 30/132/3
f 30/132/3 74/100/3 28/99/3
f 65/133/6 115/134/6 116/135/6 66/136/6
f 105/119/1 107/101/1 124/100/1
f 103/120/1 105/119/1 124/100/1
f 101/121/1 103/120/1 124/100/1
f 99/122/1 101/121/1 124/100/1
f 97/123/1 99/122/1 124/100/1
f 95/124/1 97/123/1 124/100/1
f 93/125/1 95/124/1 124/100/1
f 91/126/1 93/125/1 124/100/1
f 89/127/1 91/126/1 124/100/1
f 87/128/1 89/127/1 124/100/1
f 85/129/1 87/128/1 124/100/1
f 83/130/1 85/129/1 124/100/1
f 81/131/1 83/130/1 124/100/1
f 79/132/1 81/131/1 124/100/1
f 109/99/1 79/132/1 124/100/1
f 80/118/3 110/102/3 123/103/3
f 82/117/3 80/118/3 123/103/3
f 84/116/3 82/117/3 123/103/3
f 86/115/3 84/116/3 123/103/3
f 88/114/3 86/115/3 123/103/3
f 90/113/3 88/114/3 123/103/3
f 92/112/3 90/113/3 123/103/3
f 94/111/3 92/112/3 123/103/3
f 96/110/3 94/111/3 123/103/3
f 98/109/3 96/110/3 123/103/3
f 100/108/3 98/109/3 123/103/3
f 102/107/3 100/108/3 123/103/3
f 104/106/3 102/107/3 123/103/3
f 106/105/3 104/106/3 123/103/3
f 108/104/3 106/105/3 123/103/3
f 110/102/3 108/104/3 123/103/3
f 107/101/1 109/99/1 124/100/1
f 82/86/18 81/85/18 79/83/18 80/84/18
f 80/84/17 79/83/17 109/81/17 110/82/17
f 84/88/16 83/87/16 81/85/16 82/86/16
f 86/90/4 85/89/4 83/87/4 84/88/4
f 88/93/15 87/92/15 85/91/15 86/94/15
f 90/96/14 89/95/14 87/92/14 88/93/14
f 92/98/13 91/97/13 89/95/13 90/96/13
f 94/68/6 93/65/6 91/97/6 92/98/6
f 96/67/12 95/66/12 93/65/12 94/68/12
f 98/70/11 97/69/11 95/66/11 96/67/11
f 100/72/10 99/71/10 97/69/10 98/70/10
f 102/74/2 101/73/2 99/71/2 100/72/2
f 104/76/9 103/75/9 101/73/9 102/74/9
f 106/78/8 105/77/8 103/75/8 104/76/8
f 108/80/7 107/79/7 105/77/7 106/78/7
f 110/82/5 109/81/5 107/79/5 108/80/5
f 60/137/9 75/138/9 111/139/9 61/140/9
f 58/141/7 77/142/7 76/143/7 59/144/7
f 71/145/18 121/146/18 122/147/18 72/148/18
f 57/149/5 78/150/5 77/142/5 58/141/5
f 59/144/8 76/143/8 75/138/8 60/137/8
f 72/148/17 122/147/17 78/150/17 57/149/17
f 70/151/16 120/152/16 121/146/16 71/145/16
f 69/153/4 119/154/4 120/152/4 70/151/4
f 68/155/15 118/156/15 119/154/15 69/153/15
f 67/157/14 117/158/14 118/156/14 68/155/14
f 66/136/13 116/135/13 117/158/13 67/157/13
f 64/159/12 114/160/12 115/134/12 65/133/12
f 63/161/11 113/162/11 114/160/11 64/159/11
f 62/163/10 112/164/10 113/162/10 63/161/10
f 61/140/2 111/139/2 112/165/2 62/166/2
