# Blender v2.78 (sub 0) OBJ File: 'pipe-valve-on.blend'
# www.blender.org
o Cube.003_Cube.003_None
v -0.062500 0.343750 0.312500
v -0.062500 0.343750 -0.093750
v -0.062500 0.281250 -0.093750
v -0.062500 0.281250 0.312500
v 0.062500 0.343750 -0.093750
v 0.062500 0.281250 -0.093750
v 0.062500 0.343750 0.312500
v 0.062500 0.281250 0.312500
v 0.031250 0.281250 0.031250
v -0.031250 0.281250 0.031250
v -0.031250 0.250000 0.031250
v 0.031250 0.250000 0.031250
v -0.031250 0.281250 -0.031250
v -0.031250 0.250000 -0.031250
v 0.031250 0.281250 -0.031250
v 0.031250 0.250000 -0.031250
v 0.250000 0.250000 0.250000
v -0.250000 0.250000 0.250000
v -0.250000 -0.250000 0.250000
v 0.250000 -0.250000 0.250000
v -0.250000 0.250000 -0.250000
v -0.250000 -0.250000 -0.250000
v 0.250000 0.250000 -0.250000
v 0.250000 -0.250000 -0.250000
v -0.156250 -0.064721 0.500000
v -0.156250 -0.064721 0.468750
v -0.064721 -0.156250 0.500000
v -0.064721 -0.156250 0.468750
v 0.064721 -0.156250 0.500000
v 0.064721 -0.156250 0.468750
v 0.156250 -0.064721 0.500000
v 0.156250 -0.064721 0.468750
v 0.156250 0.064721 0.500000
v 0.156250 0.064721 0.468750
v 0.064721 0.156250 0.500000
v 0.064721 0.156250 0.468750
v -0.064721 0.156250 0.500000
v -0.064721 0.156250 0.468750
v -0.156250 0.064721 0.500000
v -0.156250 0.064721 0.468750
v -0.125000 -0.051777 0.468750
v -0.125000 -0.051777 -0.468750
v -0.051777 -0.125000 0.468750
v -0.051777 -0.125000 -0.468750
v 0.051777 -0.125000 0.468750
v 0.051777 -0.125000 -0.468750
v 0.125000 -0.051777 0.468750
v 0.125000 -0.051777 -0.468750
v 0.125000 0.051777 0.468750
v 0.125000 0.051777 -0.468750
v 0.051777 0.125000 0.468750
v 0.051777 0.125000 -0.468750
v -0.051777 0.125000 0.468750
v -0.051777 0.125000 -0.468750
v -0.125000 0.051777 0.468750
v -0.125000 0.051777 -0.468750
v -0.156250 -0.064721 -0.468750
v -0.156250 -0.064721 -0.500000
v -0.064721 -0.156250 -0.468750
v -0.064721 -0.156250 -0.500000
v 0.064721 -0.156250 -0.468750
v 0.064721 -0.156250 -0.500000
v 0.156250 -0.064721 -0.468750
v 0.156250 -0.064721 -0.500000
v 0.156250 0.064721 -0.468750
v 0.156250 0.064721 -0.500000
v 0.064721 0.156250 -0.468750
v 0.064721 0.156250 -0.500000
v -0.064721 0.156250 -0.468750
v -0.064721 0.156250 -0.500000
v -0.156250 0.064721 -0.468750
v -0.156250 0.064721 -0.500000
vt 0.2656 0.2344
vt 0.4688 0.2344
vt 0.4688 0.2656
vt 0.2656 0.2656
vt 0.2656 0.1875
vt 0.3281 0.1875
vt 0.3281 0.2188
vt 0.2656 0.2188
vt 0.4688 0.3125
vt 0.2656 0.3125
vt 0.2656 0.2812
vt 0.4688 0.2812
vt 0.4062 0.2188
vt 0.3438 0.2188
vt 0.3438 0.1875
vt 0.4062 0.1875
vt 0.4688 0.4688
vt 0.2656 0.4688
vt 0.2656 0.4062
vt 0.4688 0.4062
vt 0.4688 0.3906
vt 0.2656 0.3906
vt 0.2656 0.3281
vt 0.4688 0.3281
vt 0.0391 0.2031
vt 0.0078 0.2031
vt 0.0078 0.1875
vt 0.0391 0.1875
vt 0.0859 0.2031
vt 0.0547 0.2031
vt 0.0547 0.1875
vt 0.0859 0.1875
vt 0.1484 0.1875
vt 0.1797 0.1875
vt 0.1797 0.2031
vt 0.1484 0.2031
vt 0.1328 0.2031
vt 0.1016 0.2031
vt 0.1016 0.1875
vt 0.1328 0.1875
vt 0.5156 0.4844
vt 0.5156 0.7344
vt 0.2656 0.7344
vt 0.2656 0.4844
vt 0.0000 0.4688
vt 0.0000 0.2188
vt 0.2500 0.2188
vt 0.2500 0.4688
vt 0.5156 1.0000
vt 0.2656 1.0000
vt 0.2656 0.7500
vt 0.5156 0.7500
vt 0.2500 0.7344
vt 0.0000 0.7344
vt 0.0000 0.4844
vt 0.2500 0.4844
vt 0.7812 1.0000
vt 0.5312 1.0000
vt 0.5312 0.7500
vt 0.7812 0.7500
vt 0.0008 0.7500
vt 0.2502 0.7500
vt 0.2502 0.9994
vt 0.0008 0.9994
vt 0.8516 0.4453
vt 0.8047 0.4922
vt 0.7422 0.4922
vt 0.6953 0.4453
vt 0.6953 0.3828
vt 0.7422 0.3359
vt 0.8047 0.3359
vt 0.8516 0.3828
vt 0.6172 0.4922
vt 0.6641 0.4453
vt 0.6641 0.3828
vt 0.6172 0.3359
vt 0.5547 0.3359
vt 0.5078 0.3828
vt 0.5078 0.4453
vt 0.5547 0.4922
vt 0.6641 0.4453
vt 0.6172 0.4922
vt 0.5547 0.4922
vt 0.5078 0.4453
vt 0.5078 0.3828
vt 0.5547 0.3359
vt 0.6172 0.3359
vt 0.6641 0.3828
vt 0.8047 0.4922
vt 0.8516 0.4453
vt 0.8516 0.3828
vt 0.8047 0.3359
vt 0.7422 0.3359
vt 0.6953 0.3828
vt 0.6953 0.4453
vt 0.7422 0.4922
vt 0.8984 0.2969
vt 0.8984 0.2812
vt 0.9297 0.2812
vt 0.9297 0.2969
vt 0.9609 0.2812
vt 0.9609 0.2969
vt 0.9922 0.2812
vt 0.9922 0.2969
vt 0.7422 0.2969
vt 0.7422 0.2812
vt 0.7734 0.2812
vt 0.7734 0.2969
vt 0.8047 0.2812
vt 0.8047 0.2969
vt 0.8359 0.2812
vt 0.8359 0.2969
vt 0.8672 0.2812
vt 0.8672 0.2969
vt 0.6797 0.2969
vt 0.6797 0.2812
vt 0.7109 0.2812
vt 0.7109 0.2969
vt 0.6484 0.2969
vt 0.6484 0.2812
vt 0.7422 0.2812
vt 0.7422 0.2969
vt 0.4922 0.2969
vt 0.4922 0.2812
vt 0.5234 0.2812
vt 0.5234 0.2969
vt 0.5547 0.2812
vt 0.5547 0.2969
vt 0.5859 0.2812
vt 0.5859 0.2969
vt 0.6172 0.2812
vt 0.6172 0.2969
vt 0.4922 0.1328
vt 0.4922 0.1016
vt 0.9922 0.1016
vt 0.9922 0.1328
vt 0.4922 0.1953
vt 0.4922 0.1641
vt 0.9922 0.1641
vt 0.9922 0.1953
vt 0.4922 0.2266
vt 0.9922 0.2266
vt 0.9922 0.2578
vt 0.4922 0.2578
vt 0.9922 0.0391
vt 0.9922 0.0703
vt 0.4922 0.0703
vt 0.4922 0.0391
vt 0.9922 0.0078
vt 0.4922 0.0078
vn -1.0000 0.0000 0.0000
vn -0.0000 0.0000 -1.0000
vn 1.0000 0.0000 -0.0000
vn 0.0000 0.0000 1.0000
vn 0.0000 -1.0000 -0.0000
vn 0.0000 1.0000 -0.0000
vn -0.9239 -0.3827 -0.0000
vn -0.3827 -0.9239 0.0000
vn 0.3827 -0.9239 0.0000
vn 0.9239 -0.3827 0.0000
vn 0.9239 0.3827 0.0000
vn 0.3827 0.9239 0.0000
vn -0.3827 0.9239 -0.0000
vn -0.9239 0.3827 -0.0000
g Cube.003_Cube.003_None_Cube.003_Cube.003_None_None
s off
f 1/1/1 2/2/1 3/3/1 4/4/1
f 2/5/2 5/6/2 6/7/2 3/8/2
f 5/9/3 7/10/3 8/11/3 6/12/3
f 7/13/4 1/14/4 4/15/4 8/16/4
f 4/17/5 3/18/5 6/19/5 8/20/5
f 7/21/6 5/22/6 2/23/6 1/24/6
f 9/25/4 10/26/4 11/27/4 12/28/4
f 10/29/1 13/30/1 14/31/1 11/32/1
f 13/33/2 15/34/2 16/35/2 14/36/2
f 15/37/3 9/38/3 12/39/3 16/40/3
f 17/41/4 18/42/4 19/43/4 20/44/4
f 18/45/1 21/46/1 22/47/1 19/48/1
f 21/49/2 23/50/2 24/51/2 22/52/2
f 23/53/3 17/54/3 20/55/3 24/56/3
f 20/57/5 19/58/5 22/59/5 24/60/5
f 23/61/6 21/62/6 18/63/6 17/64/6
f 28/65/2 26/66/2 40/67/2 38/68/2 36/69/2 34/70/2 32/71/2 30/72/2
f 25/73/4 27/74/4 29/75/4 31/76/4 33/77/4 35/78/4 37/79/4 39/80/4
f 60/81/2 58/82/2 72/83/2 70/84/2 68/85/2 66/86/2 64/87/2 62/88/2
f 57/89/4 59/90/4 61/91/4 63/92/4 65/93/4 67/94/4 69/95/4 71/96/4
s 1
f 25/97/7 26/98/7 28/99/8 27/100/8
f 27/100/8 28/99/8 30/101/9 29/102/9
f 29/102/9 30/101/9 32/103/10 31/104/10
f 31/105/10 32/106/10 34/107/11 33/108/11
f 33/108/11 34/107/11 36/109/12 35/110/12
f 35/110/12 36/109/12 38/111/13 37/112/13
f 37/112/13 38/111/13 40/113/14 39/114/14
f 39/114/14 40/113/14 26/98/7 25/97/7
f 59/115/8 60/116/8 62/117/9 61/118/9
f 57/119/7 58/120/7 60/116/8 59/115/8
f 61/118/9 62/117/9 64/121/10 63/122/10
f 63/123/10 64/124/10 66/125/11 65/126/11
f 65/126/11 66/125/11 68/127/12 67/128/12
f 67/128/12 68/127/12 70/129/13 69/130/13
f 69/130/13 70/129/13 72/131/14 71/132/14
f 71/132/14 72/131/14 58/120/7 57/119/7
f 54/133/13 56/134/14 55/135/14 53/136/13
f 50/137/11 52/138/12 51/139/12 49/140/11
f 48/141/10 47/142/10 45/143/9 46/144/9
f 54/133/13 53/136/13 51/139/12 52/138/12
f 43/145/8 41/146/7 42/147/7 44/148/8
f 45/149/9 43/145/8 44/148/8 46/150/9
f 48/141/10 50/137/11 49/140/11 47/142/10
f 41/146/7 55/135/14 56/134/14 42/147/7
