# Blender v2.78 (sub 0) OBJ File: 'pipe-master-lowpoly.blend'
# www.blender.org
o Cylinder.000
v 0.500000 -0.064721 0.156250
v 0.468750 -0.064721 0.156250
v 0.500000 -0.156250 0.064721
v 0.468750 -0.156250 0.064721
v 0.500000 -0.156250 -0.064721
v 0.468750 -0.156250 -0.064721
v 0.500000 -0.064721 -0.156250
v 0.468750 -0.064721 -0.156250
v 0.500000 0.064721 -0.156250
v 0.468750 0.064721 -0.156250
v 0.500000 0.156250 -0.064721
v 0.468750 0.156250 -0.064721
v 0.500000 0.156250 0.064721
v 0.468750 0.156250 0.064721
v 0.500000 0.064721 0.156250
v 0.468750 0.064721 0.156250
v 0.468750 -0.051777 0.125000
v -0.468750 -0.051777 0.125000
v 0.468750 -0.125000 0.051777
v -0.468750 -0.125000 0.051777
v 0.468750 -0.125000 -0.051777
v -0.468750 -0.125000 -0.051777
v 0.468750 -0.051777 -0.125000
v -0.468750 -0.051777 -0.125000
v 0.468750 0.051777 -0.125000
v -0.468750 0.051777 -0.125000
v 0.468750 0.125000 -0.051777
v -0.468750 0.125000 -0.051777
v 0.468750 0.125000 0.051777
v -0.468750 0.125000 0.051777
v 0.468750 0.051777 0.125000
v -0.468750 0.051777 0.125000
v -0.468750 -0.064721 0.156250
v -0.500000 -0.064721 0.156250
v -0.468750 -0.156250 0.064721
v -0.500000 -0.156250 0.064721
v -0.468750 -0.156250 -0.064721
v -0.500000 -0.156250 -0.064721
v -0.468750 -0.064721 -0.156250
v -0.500000 -0.064721 -0.156250
v -0.468750 0.064721 -0.156250
v -0.500000 0.064721 -0.156250
v -0.468750 0.156250 -0.064721
v -0.500000 0.156250 -0.064721
v -0.468750 0.156250 0.064721
v -0.500000 0.156250 0.064721
v -0.468750 0.064721 0.156250
v -0.500000 0.064721 0.156250
vt 0.7188 0.8906
vt 0.6250 0.9844
vt 0.5000 0.9844
vt 0.4062 0.8906
vt 0.4062 0.7656
vt 0.5000 0.6719
vt 0.6250 0.6719
vt 0.7188 0.7656
vt 0.2500 0.9844
vt 0.3438 0.8906
vt 0.3438 0.7656
vt 0.2500 0.6719
vt 0.1250 0.6719
vt 0.0312 0.7656
vt 0.0312 0.8906
vt 0.1250 0.9844
vt 0.3438 0.8906
vt 0.2500 0.9844
vt 0.1250 0.9844
vt 0.0312 0.8906
vt 0.0312 0.7656
vt 0.1250 0.6719
vt 0.2500 0.6719
vt 0.3438 0.7656
vt 0.6250 0.9844
vt 0.7188 0.8906
vt 0.7188 0.7656
vt 0.6250 0.6719
vt 0.5000 0.6719
vt 0.4062 0.7656
vt 0.4062 0.8906
vt 0.5000 0.9844
vt 0.8125 0.5938
vt 0.8125 0.5625
vt 0.8750 0.5625
vt 0.8750 0.5938
vt 0.9375 0.5625
vt 0.9375 0.5938
vt 1.0000 0.5625
vt 1.0000 0.5938
vt 0.5000 0.5938
vt 0.5000 0.5625
vt 0.5625 0.5625
vt 0.5625 0.5938
vt 0.6250 0.5625
vt 0.6250 0.5938
vt 0.6875 0.5625
vt 0.6875 0.5938
vt 0.7500 0.5625
vt 0.7500 0.5938
vt 0.3750 0.5938
vt 0.3750 0.5625
vt 0.4375 0.5625
vt 0.4375 0.5938
vt 0.3125 0.5938
vt 0.3125 0.5625
vt 0.5000 0.5625
vt 0.5000 0.5938
vt 0.0000 0.5938
vt 0.0000 0.5625
vt 0.0625 0.5625
vt 0.0625 0.5938
vt 0.1250 0.5625
vt 0.1250 0.5938
vt 0.1875 0.5625
vt 0.1875 0.5938
vt 0.2500 0.5625
vt 0.2500 0.5938
vt 1.0625 0.5156
vt 0.9375 0.5156
vt 0.9375 0.0156
vt 1.0625 0.0156
vt 0.6875 0.5156
vt 0.5625 0.5156
vt 0.5625 0.0156
vt 0.6875 0.0156
vt 0.8125 0.5156
vt 0.8125 0.0156
vt 0.0625 0.5156
vt 0.0625 0.0156
vt 0.1875 0.0156
vt 0.1875 0.5156
vt 0.3125 0.0156
vt 0.4375 0.0156
vt 0.4375 0.5156
vt 0.3125 0.5156
vn -1.0000 0.0000 0.0000
vn 1.0000 0.0000 -0.0000
vn 0.6302 -0.2971 0.7173
vn -0.6302 -0.2971 0.7173
vn -0.6302 -0.7173 0.2971
vn 0.6302 -0.7173 0.2971
vn -0.6302 -0.7173 -0.2971
vn 0.6302 -0.7173 -0.2971
vn -0.6302 -0.2971 -0.7173
vn 0.6302 -0.2971 -0.7173
vn -0.6302 0.2971 -0.7173
vn 0.6302 0.2971 -0.7173
vn -0.6302 0.7173 -0.2971
vn 0.6302 0.7173 -0.2971
vn -0.6302 0.7173 0.2971
vn 0.6302 0.7173 0.2971
vn -0.6302 0.2971 0.7173
vn 0.6302 0.2971 0.7173
vn 0.0000 -0.3827 -0.9239
vn 0.0000 0.3827 -0.9239
vn 0.0000 0.9239 0.3827
vn 0.0000 0.3827 0.9239
vn 0.0000 0.9239 -0.3827
vn 0.0000 -0.9239 -0.3827
vn 0.0000 -0.9239 0.3827
vn 0.0000 -0.3827 0.9239
g Cylinder.000_Cylinder.000_None
s off
f 4/1/1 2/2/1 16/3/1 14/4/1 12/5/1 10/6/1 8/7/1 6/8/1
f 1/9/2 3/10/2 5/11/2 7/12/2 9/13/2 11/14/2 13/15/2 15/16/2
f 36/17/1 34/18/1 48/19/1 46/20/1 44/21/1 42/22/1 40/23/1 38/24/1
f 33/25/2 35/26/2 37/27/2 39/28/2 41/29/2 43/30/2 45/31/2 47/32/2
s 1
f 1/33/3 2/34/4 4/35/5 3/36/6
f 3/36/6 4/35/5 6/37/7 5/38/8
f 5/38/8 6/37/7 8/39/9 7/40/10
f 7/41/10 8/42/9 10/43/11 9/44/12
f 9/44/12 10/43/11 12/45/13 11/46/14
f 11/46/14 12/45/13 14/47/15 13/48/16
f 13/48/16 14/47/15 16/49/17 15/50/18
f 15/50/18 16/49/17 2/34/4 1/33/3
f 35/51/6 36/52/5 38/53/7 37/54/8
f 33/55/3 34/56/4 36/52/5 35/51/6
f 37/54/8 38/53/7 40/57/9 39/58/10
f 39/59/10 40/60/9 42/61/11 41/62/12
f 41/62/12 42/61/11 44/63/13 43/64/14
f 43/64/14 44/63/13 46/65/15 45/66/16
f 45/66/16 46/65/15 48/67/17 47/68/18
f 47/68/18 48/67/17 34/56/4 33/55/3
f 24/69/19 26/70/20 25/71/20 23/72/19
f 30/73/21 32/74/22 31/75/22 29/76/21
f 26/70/20 28/77/23 27/78/23 25/71/20
f 24/79/19 23/80/19 21/81/24 22/82/24
f 19/83/25 17/84/26 18/85/26 20/86/25
f 21/81/24 19/83/25 20/86/25 22/82/24
f 30/73/21 29/76/21 27/78/23 28/77/23
f 17/84/26 31/75/22 32/74/22 18/85/26
